Jog05_grf.mot																		
version=1																		
nRows=67																		
nColumns 19																		
inDegrees=yes																		
endheader																		
time	calcn_r_ground_force_vx	calcn_r_ground_force_vy	calcn_r_ground_force_vz	calcn_r_ground_force_px	calcn_r_ground_force_py	calcn_r_ground_force_pz	calcn_r_ground_torque_x	calcn_r_ground_torque_y	calcn_r_ground_torque_z	calcn_l_ground_force_vx	calcn_l_ground_force_vy	calcn_l_ground_force_vz	calcn_l_ground_force_px	calcn_l_ground_force_py	calcn_l_ground_force_pz	calcn_l_ground_torque_x	calcn_l_ground_torque_y	calcn_l_ground_torque_z
0.654	210.481599	778.0413	24.607923	-2.035763	0	0.412129	0.924664	3.471982	0.10933	0	0	0	0	0	0	0	0	0
0.6545	209.518284	765.645897	24.487434	-2.035599	0	0.412168	0.909382	3.371175	0.107452	0	0	0	0	0	0	0	0	0
0.655	208.490021	753.261105	24.361798	-2.035433	0	0.41221	0.894281	3.27302	0.105608	0	0	0	0	0	0	0	0	0
0.6555	207.397297	740.890717	24.231175	-2.035264	0	0.412256	0.87938	3.177538	0.1038	0	0	0	0	0	0	0	0	0
0.656	206.240649	728.53864	24.095713	-2.035092	0	0.412305	0.864697	3.08474	0.102031	0	0	0	0	0	0	0	0	0
0.6565	205.020659	716.208876	23.955562	-2.034916	0	0.412357	0.850249	2.994634	0.100304	0	0	0	0	0	0	0	0	0
0.657	203.737958	703.905518	23.810871	-2.034738	0	0.412413	0.83605	2.90722	0.098621	0	0	0	0	0	0	0	0	0
0.6575	202.393218	691.632725	23.66179	-2.034556	0	0.412472	0.822118	2.8225	0.096984	0	0	0	0	0	0	0	0	0
0.658	200.987158	679.39471	23.508466	-2.034372	0	0.412534	0.808468	2.740469	0.095398	0	0	0	0	0	0	0	0	0
0.6585	199.52056	667.19577	23.351037	-2.034184	0	0.4126	0.795113	2.661124	0.093862	0	0	0	0	0	0	0	0	0
0.659	197.994279	655.040336	23.189634	-2.033992	0	0.412669	0.78207	2.584457	0.09238	0	0	0	0	0	0	0	0	0
0.6595	196.409255	642.933	23.02438	-2.033798	0	0.412742	0.769351	2.510461	0.090954	0	0	0	0	0	0	0	0	0
0.66	194.766515	630.878488	22.855402	-2.033601	0	0.412818	0.756972	2.439126	0.089586	0	0	0	0	0	0	0	0	0
0.6605	193.067176	618.881609	22.682829	-2.033401	0	0.412898	0.744946	2.37044	0.088276	0	0	0	0	0	0	0	0	0
0.661	191.31245	606.947216	22.506797	-2.033199	0	0.412981	0.733285	2.304386	0.087028	0	0	0	0	0	0	0	0	0
0.6615	189.503652	595.080192	22.327456	-2.032994	0	0.413068	0.722	2.240947	0.085843	0	0	0	0	0	0	0	0	0
0.662	187.642199	583.285415	22.144975	-2.032788	0	0.413158	0.711104	2.180105	0.084722	0	0	0	0	0	0	0	0	0
0.6625	185.729625	571.567754	21.959535	-2.03258	0	0.413251	0.70061	2.121842	0.083667	0	0	0	0	0	0	0	0	0
0.663	183.767593	559.932082	21.771317	-2.03237	0	0.413347	0.690526	2.066134	0.082679	0	0	0	0	0	0	0	0	0
0.6635	181.757895	548.383278	21.580479	-2.03216	0	0.413446	0.68086	2.012944	0.08176	0	0	0	0	0	0	0	0	0
0.664	179.702449	536.926207	21.387162	-2.031949	0	0.413548	0.671615	1.962227	0.080909	0	0	0	0	0	0	0	0	0
0.6645	177.603297	525.565711	21.191494	-2.031738	0	0.413653	0.662791	1.91393	0.080126	0	0	0	0	0	0	0	0	0
0.665	175.462592	514.306588	20.993591	-2.031528	0	0.41376	0.654387	1.867993	0.079412	0	0	0	0	0	0	0	0	0
0.6655	173.282589	503.153555	20.793571	-2.031317	0	0.41387	0.646401	1.824355	0.078765	0	0	0	0	0	0	0	0	0
0.666	171.06566	492.11127	20.591552	-2.031108	0	0.413983	0.638828	1.782952	0.078185	0	0	0	0	0	0	0	0	0
0.6665	168.814294	481.184333	20.387645	-2.0309	0	0.414098	0.631665	1.743718	0.077671	0	0	0	0	0	0	0	0	0
0.667	166.531102	470.377283	20.181949	-2.030694	0	0.414216	0.624905	1.706585	0.077222	0	0	0	0	0	0	0	0	0
0.6675	164.218818	459.694585	19.974547	-2.03049	0	0.414335	0.618544	1.671484	0.076836	0	0	0	0	0	0	0	0	0
0.668	161.880295	449.140599	19.765511	-2.030289	0	0.414456	0.612576	1.638346	0.076513	0	0	0	0	0	0	0	0	0
0.6685	159.518504	438.719535	19.554903	-2.030091	0	0.414579	0.606994	1.607106	0.07625	0	0	0	0	0	0	0	0	0
0.669	157.136539	428.435461	19.342783	-2.029898	0	0.414704	0.601794	1.577693	0.076045	0	0	0	0	0	0	0	0	0
0.6695	154.737624	418.292329	19.129203	-2.029708	0	0.41483	0.596964	1.55003	0.075897	0	0	0	0	0	0	0	0	0
0.67	152.325095	408.293986	18.91422	-2.029524	0	0.414957	0.592493	1.524034	0.075803	0	0	0	0	0	0	0	0	0
0.6705	149.902372	398.444198	18.697902	-2.029344	0	0.415085	0.588365	1.499614	0.07576	0	0	0	0	0	0	0	0	0
0.671	147.472922	388.74665	18.480336	-2.029171	0	0.415215	0.584565	1.476679	0.075765	0	0	0	0	0	0	0	0	0
0.6715	145.040233	379.204936	18.261649	-2.029003	0	0.415345	0.581074	1.455139	0.075814	0	0	0	0	0	0	0	0	0
0.672	142.607787	369.822564	18.04203	-2.028843	0	0.415476	0.577879	1.434909	0.075906	0	0	0	0	0	0	0	0	0
0.6725	140.179048	360.60299	17.821731	-2.02869	0	0.415607	0.574966	1.415914	0.076037	0	0	0	0	0	0	0	0	0
0.673	137.757433	351.549634	17.60107	-2.028544	0	0.415739	0.572326	1.398086	0.076207	0	0	0	0	0	0	0	0	0
0.6735	135.346296	342.665908	17.3804	-2.028407	0	0.41587	0.569948	1.381366	0.076413	0	0	0	0	0	0	0	0	0
0.674	132.948907	333.955212	17.160097	-2.028279	0	0.416002	0.567827	1.365701	0.076656	0	0	0	0	0	0	0	0	0
0.6745	130.568456	325.420926	16.940563	-2.028159	0	0.416133	0.565957	1.351047	0.076935	0	0	0	0	0	0	0	0	0
0.675	128.208054	317.066433	16.722216	-2.028048	0	0.416264	0.564332	1.337363	0.077248	0	0	0	0	0	0	0	0	0
0.6755	125.870746	308.895133	16.505477	-2.027946	0	0.416394	0.562948	1.324609	0.077596	0	0	0	0	0	0	0	0	0
0.676	123.559521	300.910439	16.290764	-2.027854	0	0.416523	0.561796	1.312744	0.077978	0	0	0	0	0	0	0	0	0
0.6765	121.277335	293.115792	16.078476	-2.027771	0	0.416651	0.560868	1.301727	0.078392	0	0	0	0	0	0	0	0	0
0.677	119.02713	285.514659	15.868985	-2.027698	0	0.416777	0.560153	1.291512	0.078837	0	0	0	0	0	0	0	0	0
0.6775	116.811828	278.110483	15.662637	-2.027634	0	0.416902	0.559638	1.28205	0.07931	0	0	0	0	0	0	0	0	0
0.678	114.634335	270.906663	15.459769	-2.02758	0	0.417024	0.55931	1.273299	0.07981	0	0	0	0	0	0	0	0	0
0.6785	112.497552	263.906553	15.260707	-2.027536	0	0.417145	0.55916	1.265223	0.080333	0	0	0	0	0	0	0	0	0
0.679	110.404398	257.113489	15.065756	-2.027501	0	0.417262	0.559179	1.257787	0.080879	0	0	0	0	0	0	0	0	0
0.6795	108.357831	250.530858	14.875188	-2.027476	0	0.417377	0.559355	1.250953	0.081443	0	0	0	0	0	0	0	0	0
0.68	106.360855	244.162157	14.689235	-2.027461	0	0.417488	0.55967	1.244674	0.082023	0	0	0	0	0	0	0	0	0
0.6805	104.416507	238.010951	14.508087	-2.027456	0	0.417596	0.560106	1.238892	0.082613	0	0	0	0	0	0	0	0	0
0.681	102.527844	232.080803	14.3319	-2.027461	0	0.417701	0.560638	1.23355	0.083208	0	0	0	0	0	0	0	0	0
0.6815	100.697913	226.375238	14.160808	-2.027477	0	0.417802	0.561246	1.228588	0.083804	0	0	0	0	0	0	0	0	0
0.682	98.92973	220.897722	13.994943	-2.027503	0	0.417898	0.561906	1.223952	0.084393	0	0	0	0	0	0	0	0	0
0.6825	97.226265	215.651644	13.834441	-2.027539	0	0.41799	0.562596	1.219586	0.084971	0	0	0	0	0	0	0	0	0
0.683	95.590409	210.640299	13.679451	-2.027585	0	0.418078	0.563293	1.215436	0.085533	0	0	0	0	0	0	0	0	0
0.6835	94.024921	205.866816	13.530134	-2.027641	0	0.41816	0.563976	1.211454	0.086071	0	0	0	0	0	0	0	0	0
0.684	92.532376	201.334074	13.386662	-2.027708	0	0.418237	0.564625	1.207593	0.086582	0	0	0	0	0	0	0	0	0
0.6845	91.115133	197.044667	13.249212	-2.027784	0	0.418309	0.565221	1.203818	0.08706	0	0	0	0	0	0	0	0	0
0.685	89.775302	193.000849	13.117967	-2.027869	0	0.418376	0.565748	1.200096	0.087502	0	0	0	0	0	0	0	0	0
0.6855	88.51472	189.204471	12.993118	-2.027962	0	0.418436	0.56619	1.196398	0.087904	0	0	0	0	0	0	0	0	0
0.686	87.334925	185.656899	12.874854	-2.028063	0	0.418491	0.566534	1.192699	0.088261	0	0	0	0	0	0	0	0	0
0.6865	86.237118	182.358916	12.763357	-2.028171	0	0.418539	0.566766	1.188984	0.088572	0	0	0	0	0	0	0	0	0
0.687	85.222125	179.310625	12.658803	-2.028286	0	0.418581	0.566879	1.185244	0.088834	0	0	0	0	0	0	0	0	0
